<?xml version="1.0" encoding="UTF-8" standalone="no"?>
<!-- Created with Inkscape (http://www.inkscape.org/) -->

<svg
   xmlns:dc="http://purl.org/dc/elements/1.1/"
   xmlns:cc="http://creativecommons.org/ns#"
   xmlns:rdf="http://www.w3.org/1999/02/22-rdf-syntax-ns#"
   xmlns:svg="http://www.w3.org/2000/svg"
   xmlns="http://www.w3.org/2000/svg"
   xmlns:sodipodi="http://sodipodi.sourceforge.net/DTD/sodipodi-0.dtd"
   xmlns:inkscape="http://www.inkscape.org/namespaces/inkscape"
   width="210mm"
   height="297mm"
   viewBox="0 0 210 297"
   version="1.1"
   id="svg8"
   inkscape:version="0.92.3 (d244b95, 2018-08-02)"
   sodipodi:docname="logo.svg">
  <defs
     id="defs2" />
  <sodipodi:namedview
     id="base"
     pagecolor="#ffffff"
     bordercolor="#666666"
     borderopacity="1.0"
     inkscape:pageopacity="0.0"
     inkscape:pageshadow="2"
     inkscape:zoom="0.35"
     inkscape:cx="-110"
     inkscape:cy="560"
     inkscape:document-units="mm"
     inkscape:current-layer="layer1"
     showgrid="false"
     inkscape:window-width="1313"
     inkscape:window-height="704"
     inkscape:window-x="53"
     inkscape:window-y="27"
     inkscape:window-maximized="1" />
  <metadata
     id="metadata5">
    <rdf:RDF>
      <cc:Work
         rdf:about="">
        <dc:format>image/svg+xml</dc:format>
        <dc:type
           rdf:resource="http://purl.org/dc/dcmitype/StillImage" />
        <dc:title></dc:title>
      </cc:Work>
    </rdf:RDF>
  </metadata>
  <g
     inkscape:label="Capa 1"
     inkscape:groupmode="layer"
     id="layer1">
    <g
       id="g927"
       transform="matrix(1.7352424,0,0,1.3996524,-2.7051976,-120.27177)">
      <path
         style="fill:#eaeaea;stroke-width:0.7350381"
         d="M 1.8520838,232.36606 V 167.10847 H 61.988099 122.12411 v 65.25759 65.25759 H 61.988099 1.8520838 Z"
         id="path931"
         inkscape:connector-curvature="0" />
      <path
         style="fill:#5c5c5c;stroke-width:0.7350381"
         d="m 41.08611,296.68154 c -0.957166,-0.59567 -2.437841,-0.81787 -3.899325,-0.58515 -1.921985,0.30603 -2.772032,-0.002 -4.612721,-1.6722 -1.286571,-1.16733 -3.062925,-2.04738 -4.13254,-2.04738 -2.342709,0 -5.171133,-2.17905 -5.171133,-3.9839 0,-2.29241 7.267083,-7.52636 19.283552,-13.88852 10.519922,-5.56982 11.723346,-6.41519 14.704321,-10.32935 3.033871,-3.98362 3.418665,-3.62274 1.048974,0.98378 -1.73974,3.38194 -5.266924,6.10299 -14.154213,10.91931 -4.726608,2.5615 -10.698808,6.24206 -13.271556,8.17901 -4.417021,3.32547 -4.599053,3.58437 -3.26617,4.64555 1.193465,0.95018 1.92143,1.01546 4.71168,0.42252 l 3.300127,-0.7013 v 2.20438 c 0,2.40935 1.258643,2.78834 5.248918,1.5805 1.771477,-0.53622 2.097295,-0.42826 2.319026,0.76845 0.377354,2.03661 1.784098,2.0956 4.62291,0.19382 2.444319,-1.63749 2.527345,-1.64718 3.042453,-0.35506 0.727859,1.82581 1.702185,1.66714 3.829454,-0.62362 1.360581,-1.46515 2.268122,-1.86099 3.638749,-1.58711 2.012331,0.40211 4.483264,-1.7129 4.483264,-3.83747 0,-0.6501 0.887876,-1.45076 1.973058,-1.77925 1.085183,-0.32848 2.168022,-0.98523 2.406308,-1.45944 0.238287,-0.47421 0.462516,-0.10203 0.498285,0.82708 0.03863,1.00365 -0.770823,2.31445 -1.994418,3.22963 -1.132698,0.8472 -2.059452,1.88018 -2.059452,2.2955 0,0.90309 -3.470688,3.6072 -4.629791,3.6072 -0.449124,0 -2.065523,0.7336 -3.591999,1.63023 -1.593928,0.93624 -3.853815,1.61711 -5.308676,1.59942 -1.393295,-0.0169 -3.645369,0.13897 -5.004607,0.34646 -1.559611,0.23807 -3.040639,0.0229 -4.014478,-0.58309 z m 43.127555,-19.07732 c -0.573121,-0.5498 -0.812821,-1.18212 -0.532666,-1.40517 0.598301,-0.47635 3.020531,0.99057 3.020531,1.82925 0,0.90341 -1.34264,0.67454 -2.487865,-0.42408 z m -16.459099,-4.89427 c 0,-0.84161 5.704296,-2.74022 6.724581,-2.23819 1.845092,0.90787 5.242742,-0.74454 11.292548,-5.49202 3.551872,-2.78727 8.189907,-6.20216 10.306753,-7.58864 4.071822,-2.66694 6.528742,-5.82979 7.467042,-9.61244 1.45274,-5.8566 3.03857,-9.18346 4.71878,-9.89937 1.74479,-0.74344 1.74394,-0.73143 -0.11876,1.6681 -1.17005,1.50726 -2.10573,4.08162 -2.48604,6.83989 -0.3354,2.43263 -1.25718,5.50906 -2.04839,6.83654 -0.79121,1.32747 -5.104892,5.10485 -9.585948,8.39417 -4.540631,3.33306 -8.147383,6.5056 -8.147383,7.16653 0,2.05566 -0.945932,3.26078 -2.559479,3.26078 -0.857685,0 -1.559427,-0.29514 -1.559427,-0.65586 0,-1.07094 -1.528835,-0.75037 -3.354879,0.70343 -1.430165,1.13863 -2.09584,1.25145 -4.100696,0.69503 -1.480921,-0.41101 -2.575885,-0.42916 -2.872095,-0.0476 -0.636024,0.8193 -3.676607,0.79419 -3.676607,-0.0304 z M 62.81188,253.70443 c 0,-0.37341 -0.65892,-0.67893 -1.464266,-0.67893 -0.805346,0 -2.369755,-0.50494 -3.476466,-1.1221 -1.10671,-0.61715 -3.480572,-1.18218 -5.275248,-1.25563 -2.111295,-0.0864 -3.719205,-0.58951 -4.555398,-1.42538 -0.710794,-0.71052 -2.664771,-1.63939 -4.342172,-2.06417 -1.67751,-0.4248 -3.271188,-1.3276 -3.541787,-2.00639 -0.32078,-0.80467 -2.054339,-1.59568 -4.982045,-2.2733 -3.861729,-0.89378 -4.490078,-1.26424 -4.490078,-2.6472 0,-1.20851 -0.797268,-1.93181 -3.209179,-2.91145 -4.198771,-1.7054 -5.852413,-3.07842 -5.852413,-4.85926 0,-0.909 -0.900836,-1.87505 -2.410579,-2.58508 -1.325819,-0.62353 -3.614371,-2.34377 -5.085671,-3.82276 -2.060494,-2.07125 -2.482646,-2.93196 -1.837455,-3.7463 0.637286,-0.80436 0.277414,-1.67294 -1.504577,-3.63145 -2.4229229,-2.66293 -3.1145719,-5.64916 -1.3124877,-5.66674 0.5663497,-0.006 1.5692967,-0.28178 2.2287727,-0.61391 0.963971,-0.48548 0.36945,-1.30224 -3.0324634,-4.16601 -5.9432431,-5.00311 -8.47108417,-10.3524 -5.7436912,-12.15452 0.5899258,-0.38979 1.8817863,-0.54024 2.870801,-0.33433 l 1.7982085,0.37439 -1.6351295,-3.78379 c -1.9597287,-4.53492 -2.0723151,-7.56147 -0.3783032,-10.16955 1.4616166,-2.25029 4.0373837,-2.5513 5.3334218,-0.62329 1.299497,1.93317 2.328157,1.60255 2.927483,-0.94091 0.576423,-2.44625 3.042719,-4.68843 4.414574,-4.01341 0.470595,0.23155 2.210916,2.40019 3.867381,4.81919 6.567899,9.59138 9.77057,13.58996 14.915968,18.62281 2.951928,2.88735 4.643927,4.94158 3.759995,4.56495 -3.25623,-1.38744 -11.599923,-9.25215 -17.090969,-16.10983 -5.94491,-7.4245 -7.527533,-8.01067 -6.185369,-2.29091 1.517911,6.46872 4.555285,10.39888 13.332653,17.25155 7.149719,5.58193 7.817911,6.27408 4.750892,4.92124 -1.962939,-0.86584 -6.394883,-3.78776 -9.848762,-6.49317 -4.986225,-3.90567 -6.971179,-6.06724 -9.636287,-10.49368 -1.846078,-3.06612 -4.297353,-6.26656 -5.447278,-7.11209 -2.0668009,-1.5197 -2.1009436,-1.5222 -2.9778721,-0.21766 -2.1145111,3.1456 2.2897377,11.20022 9.3363781,17.07465 2.751242,2.29357 8.801947,6.37755 13.446013,9.07551 4.644065,2.69797 8.443755,5.01978 8.443755,5.15958 0,0.47727 -3.71446,-0.86924 -8.24433,-2.98861 -6.25112,-2.92467 -11.916215,-6.27094 -17.49167,-10.33202 -7.5903765,-5.52871 -11.180698,-3.99122 -4.8724142,2.08653 5.1951562,5.00529 12.2345572,9.29288 21.2393842,12.93655 4.670614,1.8899 8.327437,3.56722 8.126274,3.72738 -0.5761,0.45866 -11.034675,-2.49331 -16.333868,-4.6103 -7.325052,-2.9263 -11.9383201,-1.91106 -7.472446,1.64445 3.203102,2.55016 10.252842,4.98227 20.078088,6.92681 8.561035,1.69433 8.622786,1.72025 4.58163,1.92334 -5.307105,0.2667 -13.758062,-0.92007 -18.76629,-2.63536 -2.178201,-0.74603 -4.22711,-1.13921 -4.553131,-0.87375 -0.326022,0.26547 0.981473,1.59922 2.905543,2.9639 4.446093,3.15346 13.579348,5.91411 19.56607,5.91411 4.421668,0 6.685733,0.9034 3.92641,1.56669 -1.738073,0.41781 -11.921793,-10e-4 -14.235663,-0.58631 -2.329479,-0.58863 -2.125089,1.21218 0.252565,2.22527 1.037656,0.44213 5.7641,1.02848 10.503208,1.303 9.115684,0.52804 9.228479,0.76878 0.996585,2.1269 -2.831747,0.46719 -5.148631,1.06561 -5.148631,1.32981 0,0.74014 7.094783,1.41586 11.095996,1.0568 4.417811,-0.39645 6.632518,0.42788 3.6891,1.37311 -1.10907,0.35615 -2.757893,0.83898 -3.664052,1.07294 -3.346094,0.86395 1.140517,1.83456 6.806385,1.47247 5.581266,-0.35668 7.117379,-1.17619 6.268859,-3.34441 -0.694911,-1.7757 1.427092,-1.03705 2.277265,0.79269 0.516042,1.11064 0.334896,1.58461 -0.745109,1.94961 -0.784797,0.26524 -2.90971,1.21297 -4.722028,2.10607 l -3.295124,1.62381 2.471343,0.18199 c 1.359239,0.10009 4.1395,-0.21614 6.178358,-0.70275 3.080358,-0.73517 3.672408,-1.13269 3.502302,-2.35161 -0.117473,-0.84176 0.145822,-1.2944 0.617836,-1.06215 1.437687,0.70742 0.895962,1.99348 -1.661364,3.94411 -2.048667,1.56265 -2.26713,1.99123 -1.246749,2.44585 1.456378,0.64889 7.849566,-0.57031 7.849566,-1.49693 0,-0.34682 0.648728,-0.61949 1.441617,-0.60595 1.03589,0.0177 0.51424,0.67091 -1.853507,2.321 -4.120023,2.87125 -6.178358,3.84549 -6.178358,2.92429 z M 52.580914,238.90141 c -0.293122,-0.92981 -1.421914,-1.93457 -2.560647,-2.27926 -1.613312,-0.48834 -2.036446,-1.07837 -2.036446,-2.8397 0,-1.22899 -0.735631,-2.96784 -1.644904,-3.88816 -0.904698,-0.91568 -1.659821,-2.35737 -1.67805,-3.20376 -0.114431,-5.31281 -0.463809,-8.37923 -1.003694,-8.8092 -0.340798,-0.27142 -0.0054,-1.03393 0.745512,-1.69446 1.273467,-1.12032 1.263919,-1.29003 -0.142184,-2.52703 -1.423327,-1.25215 -1.431185,-1.45318 -0.141004,-3.6072 0.751479,-1.25463 1.670449,-2.28115 2.042154,-2.28115 1.462712,0 8.250447,3.90386 12.922764,7.43233 2.707229,2.04447 5.16675,3.71721 5.465602,3.71721 0.789036,0 1.727291,-6.75379 1.114795,-8.02456 -0.320431,-0.66481 0.137549,-1.52414 1.197305,-2.24656 1.253275,-0.85434 1.71623,-1.94331 1.71623,-4.03693 0,-2.31541 0.316972,-2.93298 1.647562,-3.21001 1.049872,-0.21858 1.647562,-0.89459 1.647562,-1.86347 0,-2.3133 1.491418,-4.94741 3.740978,-6.60725 1.114019,-0.82198 2.025489,-2.20663 2.025489,-3.07701 0,-1.90764 2.697323,-4.79923 5.025603,-5.38756 0.973682,-0.24604 2.383352,-1.71894 3.332521,-3.48201 2.092313,-3.88643 3.769729,-5.35108 6.128428,-5.35108 1.308922,0 1.961843,0.44523 2.16404,1.47567 0.247143,1.25953 0.574595,1.04338 2.235602,-1.47567 1.07033,-1.62324 2.833493,-3.87941 3.918138,-5.0137 1.96673,-2.05674 6.45322,-4.04836 7.40776,-3.2884 0.27673,0.22032 0.0795,2.08005 -0.43829,4.13273 -0.51779,2.05269 -0.75381,3.88153 -0.52449,4.0641 0.22931,0.18257 1.74932,-0.90733 3.37779,-2.42201 3.52098,-3.27495 7.20578,-4.93571 9.80066,-4.4172 l 1.88504,0.37667 -3.17849,6.39922 c -4.30682,8.67084 -12.08851,27.83753 -13.17152,32.44207 -0.62348,2.65082 -1.86782,4.80473 -4.26231,7.37788 -1.859979,1.99875 -3.544858,3.50426 -3.74418,3.34557 -0.199322,-0.15869 0.802437,-1.90942 2.22612,-3.89052 1.69418,-2.3575 3.00374,-5.48227 3.79033,-9.04418 1.53036,-6.92993 4.59893,-15.25087 9.15134,-24.81539 4.9141,-10.32441 4.68537,-11.36288 -1.43034,-6.49385 -4.01871,3.19951 -6.88807,8.06673 -8.13151,13.7933 -1.82323,8.39674 -2.62847,11.06449 -3.339743,11.06449 -0.399617,0 -0.530705,-1.54945 -0.291322,-3.44324 0.832525,-6.58612 2.801325,-19.19559 3.289025,-21.06508 0.75508,-2.89438 -1.19974,-1.88521 -4.004529,2.06734 -3.637693,5.12627 -4.716319,9.32387 -4.755325,18.50585 -0.04234,9.97078 -1.159513,9.35404 -2.46313,-1.3598 -1.742766,-14.323 -1.957773,-14.9314 -4.009754,-11.34585 -1.771055,3.09467 -1.841167,6.99613 -0.275489,15.32907 l 1.540363,8.19819 2.405696,0.0756 c 4.17643,0.13127 4.465149,0.22533 4.465149,1.45471 0,1.76727 -0.933146,2.20851 -2.064824,0.97634 -1.378993,-1.50146 -3.373605,-0.69719 -3.94872,1.59221 -0.371187,1.47761 -0.916448,1.90328 -2.382531,1.85997 -1.553264,-0.0459 -1.947732,0.3265 -2.15553,2.03481 -0.191422,1.57374 -0.700857,2.14172 -2.059449,2.29616 -1.425191,0.16201 -1.769919,0.59951 -1.637891,2.0787 0.148054,1.65873 -0.06383,1.83833 -1.848276,1.56675 -2.720199,-0.414 -3.933526,0.84748 -2.898927,3.01397 0.542899,1.13685 0.530665,1.83365 -0.0371,2.11302 -0.973692,0.4791 -0.925407,0.51897 -2.169046,-1.79092 -0.761629,-1.41464 -0.714834,-1.81768 0.245094,-2.11095 0.652552,-0.19936 1.186458,-0.78002 1.186458,-1.29035 0,-0.51033 0.741403,-1.08223 1.647562,-1.27089 1.118376,-0.23285 1.647562,-0.8946 1.647562,-2.0603 0,-1.22828 0.586425,-1.89478 2.059453,-2.34066 1.42493,-0.43132 2.059453,-1.11951 2.059453,-2.23364 0,-1.14492 0.511316,-1.67082 1.769374,-1.81984 3.248391,-0.38476 3.681947,-2.03533 1.724215,-6.5642 -0.984081,-2.27648 -2.513784,-6.45195 -3.399349,-9.27882 -0.885564,-2.82688 -1.814725,-5.30267 -2.064802,-5.50177 -0.805973,-0.64168 -2.148344,3.10049 -2.148344,5.98901 0,1.54242 0.55204,4.25321 1.226755,6.02396 2.669107,7.00492 1.025218,7.16565 -2.475645,0.24206 -2.115695,-4.18418 -2.484229,-4.56049 -3.443422,-3.51612 -1.618613,1.76235 -1.321935,3.66737 1.430126,9.18304 1.377354,2.76049 2.318349,5.1671 2.091101,5.34803 -0.227249,0.18092 -1.594937,-1.18457 -3.039306,-3.03444 -1.44437,-1.84986 -2.953052,-3.36338 -3.352627,-3.36338 -1.725837,0 -1.545508,2.28345 0.461514,5.84404 2.756865,4.89085 2.713791,5.31836 -0.303932,3.01655 -3.438196,-2.62252 -4.136766,-1.49247 -1.447761,2.34199 2.715685,3.87251 2.761388,4.14061 0.544834,3.19617 -2.532772,-1.07919 -2.812258,-0.37137 -1.422746,3.60319 0.999297,2.85839 1.038632,3.63984 0.19617,3.89723 -1.301785,0.39771 -2.05386,-0.33144 -4.744558,-4.59991 -3.735009,-5.92515 -18.671744,-15.02929 -18.671744,-11.38068 0,0.32688 1.103668,1.59509 2.452594,2.81826 2.528278,2.29256 2.498299,3.06855 -0.118548,3.06855 -1.830101,0 -1.950182,0.86042 -0.274593,1.96756 1.645986,1.08759 1.562268,2.4041 -0.205945,3.23865 -1.325143,0.62542 -1.275226,0.78769 0.617835,2.00835 1.927143,1.24264 1.966836,1.38475 0.617836,2.21188 -1.741054,1.06752 -1.906072,3.03481 -0.254562,3.03481 1.738138,0 2.399571,1.22559 1.25434,2.32422 -1.271441,1.2197 0.04399,2.61862 3.021871,3.21366 1.448017,0.28934 1.950257,0.73158 1.616726,1.42357 -0.266109,0.55211 -0.10142,1.57272 0.365976,2.26803 0.702492,1.04505 0.574654,1.2642 -0.737431,1.2642 -1.011938,0 -1.777242,-0.6027 -2.111444,-1.66284 z m 67.895636,-3.584 c 0,-0.36072 0.3707,-0.65586 0.82378,-0.65586 0.45308,0 0.82378,0.29514 0.82378,0.65586 0,0.36072 -0.3707,0.65585 -0.82378,0.65585 -0.45308,0 -0.82378,-0.29513 -0.82378,-0.65585 z m -7.70068,-1.45773 c -0.53904,-1.64111 2.18509,-4.14842 3.69823,-3.40389 0.61991,0.30503 0.48241,0.64663 -0.42255,1.04984 -0.73781,0.32872 -1.34147,1.15587 -1.34147,1.83809 0,1.82271 -1.38375,2.19183 -1.93421,0.51596 z m -22.779216,-2.08742 c 0,-0.14623 1.297455,-1.50226 2.883233,-3.0134 1.585779,-1.51114 2.883234,-2.96992 2.883234,-3.24172 0,-0.88719 6.330629,-2.79215 9.278949,-2.79215 4.22978,0 9.66801,2.54222 9.66801,4.51952 0,0.63516 -0.91857,0.40883 -3.07445,-0.7575 -3.31024,-1.79084 -7.41243,-2.14927 -10.36614,-0.90576 -0.98964,0.41665 -3.692832,2.03989 -6.007071,3.60721 -3.844578,2.60373 -5.265765,3.30108 -5.265765,2.5838 z m 13.729486,-1.98167 c -0.57809,-1.19938 1.52122,-2.60633 3.14754,-2.10947 0.68538,0.20939 1.24616,0.98025 1.24616,1.71301 0,0.96799 -0.53904,1.33229 -1.97132,1.33229 -1.08423,0 -2.1743,-0.42112 -2.42238,-0.93583 z"
         id="path929"
         inkscape:connector-curvature="0" />
    </g>
    <path
       style="opacity:1;fill:#ffffff;fill-opacity:1;stroke:none;stroke-width:2.86164212;stroke-miterlimit:4;stroke-dasharray:none;stroke-opacity:1"
       d="M 3.1428571,863.23386 V 605.66232 l 8.2095209,11.33292 c 4.515237,6.2331 19.240851,19.50317 32.723588,29.48904 13.482737,9.98587 23.945511,19.07607 23.250608,20.20044 -0.694903,1.12438 -5.732557,2.88273 -11.194791,3.90745 -5.462232,1.02472 -10.686369,3.0848 -11.609192,4.57797 -2.687151,4.3479 6.449243,20.82041 17.1418,30.90591 8.019549,7.56424 9.553995,10.78026 8.251289,17.29381 -1.344757,6.7238 0.137457,9.43391 9.28198,16.97163 5.985257,4.93354 19.346363,13.41782 29.69135,18.85397 13.97602,7.3442 19.87567,12.30808 22.96003,19.31834 3.53845,8.04231 8.05072,11.08703 30.57953,20.63386 18.64432,7.90077 26.42857,12.63657 26.42857,16.07874 0,7.51806 5.8607,10.80143 27.35591,15.32574 24.84995,5.23043 29.82577,7.02115 36.92981,13.29052 3.14285,2.7736 13.42857,7.22674 22.85714,9.89585 9.42857,2.66909 21.1722,7.29226 26.09697,10.27372 4.92477,2.98143 19.06763,6.70028 31.42857,8.26414 12.36095,1.56386 28.26017,4.66117 35.3316,6.88289 36.83763,11.57385 40.07789,11.7028 58.63875,2.33331 20.6614,-10.42986 32.18308,-19.37068 29.03394,-22.53043 -1.28,-1.28434 -6.42286,0.076 -11.42857,3.0232 -8.58289,5.05315 -53.38697,10.51449 -53.38697,6.50755 0,-0.88998 5.84134,-5.81309 12.98074,-10.9402 9.24863,-6.64189 12.73986,-11.0056 12.14286,-15.17755 -1.10958,-7.75403 -9.16929,-7.5392 -10.28315,0.274 -1.08625,7.61989 -16.72888,12.02923 -50.11691,14.12703 -21.51057,1.35152 -22.6384,1.15903 -14.72354,-2.51297 4.71428,-2.18714 17.25,-6.8576 27.85714,-10.37877 20.65491,-6.85666 24.12877,-12.09629 14.06074,-21.20772 -8.24248,-7.45934 -15.25091,-6.19085 -13.10194,2.37138 1.47497,5.87671 0.44311,7.60894 -5.98929,10.05454 -11.19331,4.25568 -55.19408,6.87443 -71.64425,4.26397 l -14.03955,-2.22783 19.50143,-5.04906 c 33.98394,-8.79868 29.94666,-12.68014 -13.3188,-12.80474 -48.08603,-0.13848 -64.75406,-1.09106 -64.75406,-3.70071 0,-1.3002 14.38852,-4.54586 31.97448,-7.21257 49.3787,-7.48772 47.69212,-8.85549 -16.26019,-13.18643 -26.71429,-1.80915 -53.54825,-4.39723 -59.63102,-5.75135 -10.56484,-2.35185 -18.528,-7.21351 -15.89279,-9.70282 0.68095,-0.64326 14.7381,0.0829 31.2381,1.61334 32.0262,2.97083 75.27748,2.28303 78.81114,-1.25332 4.36467,-4.36797 -2.4617,-6.01022 -34.65964,-8.3382 -56.15081,-4.0598 -116.92246,-21.02528 -137.008647,-38.2484 -10.032737,-8.60268 -12.669537,-8.68605 34.285717,1.084 48.00103,9.98763 114.91044,15.06918 123.8468,9.40575 2.53305,-1.60532 -2.83362,-3.62029 -15.71429,-5.90006 C 143.02812,720.70517 102.16768,710.13761 82.854486,697.12245 57.9444,680.33554 85.380629,677.54951 134.9383,691.83356 c 29.80892,8.59185 92.76223,23.25755 99.83429,23.25755 9.55811,0 -4.9379,-6.54495 -47.34402,-21.37583 C 136.25489,675.81808 86.46158,652.91199 61.315091,635.70012 31.6908,615.42335 17.822495,597.94826 31.355066,597.94826 c 9.420763,0 26.697651,7.44 58.676631,25.2681 50.438483,28.11917 143.753753,65.99295 154.005343,62.506 1.86534,-0.63447 -24.89418,-15.44253 -59.46561,-32.9068 C 111.37289,615.83824 92.521217,604.00181 68.975963,580.23641 41.782537,552.78873 30.01336,521.71079 44.680897,516.08233 c 6.592709,-2.52986 26.338549,14.49292 50.785706,43.78207 14.471727,17.338 30.048507,32.20782 44.285717,42.27578 21.07335,14.90221 74.9838,44.51 88.39054,48.54437 14.71241,4.42728 4.16801,-4.81496 -32.66629,-28.63221 -61.15521,-39.54328 -85.15251,-65.6567 -91.0731,-99.10408 -1.4997,-8.47229 -0.99739,-10.71429 2.40048,-10.71429 2.36337,0 18.89932,13.67684 36.74654,30.39297 36.59674,34.27736 71.40825,62.23856 95.6922,76.86159 31.16373,18.76582 27.2252,10.87356 -10.38555,-20.81118 -27.35537,-23.04521 -50.10039,-45.93254 -93.77701,-94.36374 -17.00354,-18.85451 -25.6672,-26.36535 -30.41213,-26.36535 -7.729629,0 -20.800023,11.84518 -27.9624,25.34122 l -5.008683,9.43784 -8.78196,-7.38953 c -11.716017,-9.85838 -22.976994,-9.55112 -34.727023,0.94753 -8.363474,7.47276 -9.330791,9.94271 -9.330791,23.82526 0,11.86713 2.165018,19.68608 9.260306,33.44357 l 9.260305,17.95537 -8.283043,-1.65661 c -4.555674,-0.91113 -12.258525,-0.51645 -17.117448,0.87707 l -8.8344059,2.53367 V 506.32024 429.37683 H 342.17063 681.1984 l -17.55157,8.77063 c -11.99189,5.99242 -22.98046,14.78575 -34.69014,27.75995 -16.31598,18.07791 -17.33423,18.72172 -21.21549,13.41377 -5.2326,-7.15599 -23.35114,-7.05106 -34.4166,0.19931 -4.35391,2.8528 -12.82177,11.8273 -18.81746,19.94334 -9.52285,12.89062 -25.17774,24.19871 -33.50065,24.19871 -4.75955,0 -23.57935,20.0978 -23.53906,25.13754 0.02,2.67435 -7.11603,11.29103 -15.86086,19.14818 -10.44451,9.38426 -17.19437,18.20687 -19.67308,25.71428 -2.65823,8.051 -6.3486,12.60807 -12.48709,15.41959 -8.88637,4.0701 -11.90937,10.04075 -11.97883,23.65905 -0.0257,5.18698 -2.99057,9.96 -9.2062,14.82448 -7.81263,6.11428 -9.05914,8.7791 -8.43586,18.03398 1.027,15.24957 -2.2972,32.48969 -6.5816,34.13377 -1.98834,0.76299 -19.2956,-7.59627 -38.46057,-18.57614 -34.27825,-19.63847 -72.92265,-37.49473 -81.14588,-37.49473 -5.00423,0 -21.92317,18.56535 -21.92317,24.05653 0,2.12174 3.33577,6.04339 7.41283,8.71478 l 7.41282,4.85707 -6.32289,6.73043 c -5.54747,5.905 -5.93098,7.85474 -3.12712,15.89788 1.75768,5.0421 3.19578,16.13154 3.19578,24.6432 0,16.97983 2.47386,23.26214 14.70472,37.3424 4.48383,5.1618 8.15243,12.46283 8.15243,16.22448 0,7.67318 6.79863,15.81895 13.20283,15.81895 2.3228,0 8.85677,4.5 14.51994,10 6.87317,6.67514 13.00083,10 18.4298,10 8.04668,0 10.80066,-3.72843 5.276,-7.14286 -1.57143,-0.9712 -2.85714,-5.404 -2.85714,-9.85066 0,-7.08963 -1.31886,-8.32583 -10.71429,-10.04274 -5.89286,-1.07683 -13.7154,-3.89191 -17.38343,-6.25574 -6.35117,-4.09295 -6.43454,-4.55706 -1.74854,-9.73503 4.02017,-4.44223 4.2616,-6.23129 1.31931,-9.77652 -1.98071,-2.38662 -6.65817,-4.33931 -10.39431,-4.33931 -9.08249,0 -8.85546,-7.75423 0.34983,-11.94843 9.79954,-4.46497 8.95563,-9.03263 -2.84277,-15.38648 l -9.9856,-5.37763 7.12845,-3.73497 c 9.28949,-4.86726 9.03483,-11.777 -0.72865,-19.77098 l -7.85715,-6.43315 10.54566,-0.10274 c 16.51197,-0.16089 16.31157,-5.30112 -0.7986,-20.48547 l -15.46134,-13.72113 10,-0.0561 c 24.7576,-0.13878 84.45503,34.56376 115.90774,67.378 11.10643,11.58717 22.39677,21.0676 25.08969,21.0676 7.45848,0 8.76117,-7.49566 3.63531,-20.91754 -4.96523,-13.00126 -5.97194,-21.9396 -2.47103,-21.9396 1.18894,0 6.3318,1.19596 11.42857,2.6577 12.36697,3.54678 11.94332,0.0933 -2.16171,-17.6219 -10.58183,-13.29022 -13.67374,-19.32152 -9.90503,-19.32152 0.83797,0 8.03723,3.30073 15.9984,7.33496 7.96114,4.03422 15.16249,6.64727 16.003,5.80678 0.84049,-0.84049 -3.89451,-10.50298 -10.5222,-21.47219 -11.53629,-19.09322 -13.71371,-28.57963 -7.06769,-30.79209 1.69283,-0.56355 11.53283,6.72277 21.86663,16.19181 27.76523,25.4418 29.3714,22.53739 7.84675,-14.18908 -14.80335,-25.25825 -17.04472,-35.11997 -10.10878,-44.47696 5.13172,-6.92296 7.2074,-5.12113 26.52495,23.02535 13.4108,19.5401 23.12703,26.03725 21.36365,14.28571 -0.47157,-3.14286 -4.00728,-13.76353 -7.85714,-23.60149 -3.84983,-9.83796 -6.99968,-23.05783 -6.99968,-29.37748 0,-13.71911 7.53357,-33.51448 11.29148,-29.66974 2.38897,2.44417 28.95112,59.62553 39.5086,85.0517 5.6658,13.64531 2.89529,18.90164 -12.19417,23.13531 -7.30657,2.05002 -12.56286,5.85638 -15.5636,11.27047 -2.66757,4.81294 -8.58346,9.50029 -14.38466,11.39742 -6.82271,2.23119 -10.36488,5.41949 -11.51571,10.36524 -1.01894,4.37903 -5.33654,8.8889 -11.15846,11.65534 -5.223,2.48187 -10.69846,6.66044 -12.16763,9.28572 -1.46917,2.62528 -4.53591,4.77322 -6.81497,4.77322 -5.297,0 -5.23908,3.87992 0.21543,14.4276 2.52523,4.88323 6.66129,8.42955 9.83137,8.42955 7.62472,0 9.31609,-4.02012 5.35192,-12.72055 -4.6926,-10.29911 0.17885,-14.42231 17.03942,-14.42231 13.05006,0 13.44278,-0.25474 14.31352,-9.28571 0.68326,-7.08656 2.25026,-9.28572 6.6164,-9.28572 9.5574,0 16.21008,-5.21394 18.19734,-14.26195 1.6286,-7.41538 3.16846,-8.59519 11.21792,-8.59519 9.24591,0 18.78722,-7.03776 18.78722,-13.85766 0,-1.87424 3.28198,-4.90308 7.29329,-6.73075 6.01331,-2.73985 8.84897,-2.40409 16.1574,1.9131 8.5976,5.07874 8.97963,5.07817 12.70671,-0.0188 7.83809,-10.71923 3.4436,-13.67778 -23.1588,-15.59149 l -19.85854,-1.42857 -6.74251,-27.14286 c -4.44297,-17.88579 -6.92729,-36.88712 -7.28432,-55.71428 -0.48897,-25.78613 0.10372,-29.47665 6.08132,-37.85714 3.64274,-5.10715 7.69305,-9.28572 9.00074,-9.28572 3.01471,0 7.00291,17.42355 14.71477,64.28572 10.62734,64.57834 15.8584,66.00884 19.68454,5.38303 1.37698,-21.81781 3.89769,-44.39468 5.6016,-50.17082 5.99475,-20.32159 36.51792,-59.498 46.35609,-59.498 1.75086,0 2.26877,3.22681 1.26111,7.85715 -7.13814,32.80028 -21.86654,117.48038 -21.20471,121.91536 1.44157,9.66017 7.10871,7.9541 11.70071,-3.52244 2.44943,-6.12175 7.6944,-22.3093 11.65543,-35.97234 9.32252,-32.1565 16.96089,-47.11078 32.99423,-64.5954 12.58914,-13.72866 43.00992,-34.25376 50.76834,-34.25376 5.39852,0 -0.20885,12.40729 -26.53065,58.7042 -24.28466,42.71378 -38.70449,74.6977 -52.53249,116.51979 -7.03668,21.2821 -13.01437,33.03887 -24.68877,48.55747 -8.47223,11.26199 -15.40406,21.49215 -15.40406,22.73369 0,4.41816 13.11883,-4.84701 30.59309,-21.60637 14.46588,-13.87407 19.14934,-20.76747 25.40191,-37.38812 14.14592,-37.60293 63.26652,-133.26715 92.9492,-181.02205 6.08069,-9.78292 11.0558,-18.96126 11.0558,-20.39632 0,-4.58998 -19.50611,-6.45553 -32.08445,-3.06853 -14.93152,4.02064 -27.44863,10.3126 -47.83729,24.04633 -8.5998,5.7928 -16.0622,9.25379 -16.58311,7.69108 -0.52089,-1.56271 0.98777,-10.25065 3.35257,-19.30653 2.36483,-9.05589 3.6442,-17.52583 2.84308,-18.82209 -0.80114,-1.29626 19.83355,-2.35683 45.85486,-2.35683 h 47.31149 v 178.57143 c 0,176.66665 -0.0609,178.57143 -5.71429,178.57143 -3.35783,0 -5.71429,1.90477 -5.71429,4.61894 0,3.21854 1.73958,4.16406 5.73758,3.11854 5.70222,-1.49117 5.73302,-0.49406 5,161.80963 l -0.73758,163.31 -255.71428,0.274 c -140.64286,0.1509 -242.85714,-0.6091 -227.14286,-1.6885 21.11763,-1.4506 33.35854,-3.9445 46.92117,-9.5597 10.09235,-4.1785 19.75426,-7.5972 21.47089,-7.5972 13.01197,0 58.7508,-39.8843 58.7508,-51.2307 0,-3.5136 -0.96429,-5.904 -2.14286,-5.312 -1.17857,0.592 -8.26726,3.8751 -15.75266,7.2958 -7.92905,3.6236 -14.64948,8.9384 -16.10065,12.7332 -4.18215,10.9363 -13.33023,16.8376 -29.50349,19.0324 -9.94951,1.3502 -19.02494,4.8304 -25.52497,9.7882 -12.19503,9.3016 -15.08906,9.5157 -20.68251,1.5299 l -4.31686,-6.1632 -16.91672,7.5918 c -21.08921,9.4643 -25.61972,9.4956 -29.15327,0.2017 -2.62684,-6.9091 -3.59843,-7.2431 -14.92928,-5.1318 -6.66577,1.242 -16.61959,2.3176 -22.11959,2.39 -9.52074,0.1255 -10.0425,-0.3816 -10.88676,-10.5824 -0.9925,-11.992 -1.1747,-12.0424 -29.11324,-8.0537 -16.22339,2.3161 -29.58767,-0.9238 -27.73704,-6.7244 1.72676,-5.4123 28.15302,-21.5178 63.45133,-38.6705 18.85714,-9.1634 52.92857,-25.7047 75.71428,-36.75861 42.51369,-20.62435 54.94852,-29.76143 67.4466,-49.55972 12.27589,-19.44623 5.95583,-18.54426 -16.59914,2.369 -20.20651,18.73572 -25.27249,21.67474 -75.53897,43.82392 -89.76113,39.55191 -133.7313,63.52111 -140.81848,76.76361 -5.56976,10.4072 9.79,23.2857 32.65285,27.378 6.28571,1.1251 18.01365,5.7969 26.06208,10.3818 11.01988,6.2777 18.42812,8.3674 30,8.4624 8.45157,0.069 21.79506,1.9111 29.65221,4.0928 12.72923,3.5346 -0.57864,3.9878 -122.14286,4.1597 L 3.1428571,1120.8054 Z M 558.62114,1018.3301 c 1.73106,-2.8009 -5.8544,-10.0633 -13.24391,-12.6799 -7.82623,-2.7712 -9.4832,4.1457 -2.37246,9.9036 6.97937,5.6516 13.16026,6.7504 15.61637,2.7763 z m -50.41457,-34.33567 c 11.19209,-5.70977 12.60137,-5.83572 18.92614,-1.69157 10.0844,6.60754 21.41912,2.78828 26.28469,-8.85672 4.7106,-11.27403 10.69869,-15.94365 61.92849,-48.29288 52.23354,-32.98303 57.16777,-37.8834 64.87051,-64.4252 8.5016,-29.29437 13.90186,-41.358 21.86109,-48.83532 7.89925,-7.42094 8.62948,-11.08734 2.20822,-11.08734 -9.12891,0 -22.98665,18.34454 -32.37491,42.85714 -15.1526,39.56326 -15.88569,40.2518 -90.19651,84.71532 -65.10646,38.95611 -81.96866,46.71325 -101.54369,46.71325 -19.52634,0 -45.59917,7.28395 -45.59917,12.739 0,3.16249 6.11123,3.78606 30.77131,3.13983 24.80697,-0.65005 33.11517,-2.00211 42.86383,-6.97551 z M 743.53029,780.92214 c 1.62102,-4.65008 5.41128,-9.23671 8.4228,-10.19254 8.16817,-2.59246 6.61045,-7.06706 -2.4602,-7.06706 -10.67952,0 -20.63575,7.43017 -20.63575,15.40012 0,13.0662 10.31095,14.37288 14.67315,1.85948 z M 630.0432,751.92997 c 29.16109,-14.27977 32.5004,-15.25354 51.42857,-14.99691 13.25972,0.17971 25.66329,2.37291 35.9568,6.35768 24.83332,9.61332 33.70709,7.07369 18.1212,-5.1862 -13.37163,-10.51808 -36.30526,-15.332 -65.09368,-13.66354 -34.04192,1.97291 -46.50286,6.9584 -70.33715,28.14106 -31.3392,27.85263 -28.1438,27.783 29.92426,-0.65209 z m 69.22326,10.26763 c 2.80314,-7.30486 -4.68766,-13.19137 -15.58969,-12.25094 -11.63811,1.00391 -18.88763,9.33883 -11.96248,13.75345 6.95988,4.4368 25.66445,3.41678 27.55217,-1.50251 z"
       id="path2439"
       inkscape:connector-curvature="0"
       transform="scale(0.26458333)" />
    <path
       style="opacity:1;fill:#000000;fill-opacity:1;stroke:none;stroke-width:0.26499999;stroke-miterlimit:4;stroke-dasharray:none;stroke-opacity:1"
       id="path2443"
       d="m 16.024627,109.41114 c 1.088975,-1.91697 2.248136,-3.79572 3.266924,-5.75089 2.868005,-5.504019 5.576079,-11.562614 7.956075,-17.274952 2.022097,-4.853334 4.818166,-12.08192 6.494558,-17.167622 0.80074,-2.429232 1.460939,-4.902555 2.191408,-7.353832 2.053881,-8.879964 3.232703,-18.404982 0.812443,-27.362373 -0.310462,-1.149024 -0.784812,-2.247363 -1.177218,-3.371045 -0.557898,-0.98769 -1.027745,-2.03058 -1.673688,-2.963069 -1.890766,-2.729533 -5.569956,-6.388241 -9.22663,-6.075304 -0.979691,0.08384 -1.893874,0.52965 -2.840812,0.794475 -1.017416,0.587543 -4.160885,2.151542 -3.052244,1.762629 1.928127,-0.676388 3.523316,-2.989911 5.53535,-2.633706 1.437953,0.254571 -2.158836,1.97381 -3.136733,3.05835 -2.300626,2.551518 -4.061705,5.041236 -5.552991,8.156174 -0.733808,1.532747 -1.220561,3.171968 -1.830841,4.757952 -1.225829,5.045654 -2.282139,11.736821 2.508844,15.452619 2.689736,2.086107 5.170353,2.084514 8.413004,2.677898 12.899406,0.346607 25.340974,-3.58648 37.472165,-7.517599 8.714483,-2.993617 17.514932,-5.71995 26.350414,-8.330923 3.1602,-0.869844 6.26715,-1.959339 9.48856,-2.59121 0,0 -8.91746,6.734314 -8.91746,6.734314 v 0 c -2.93846,0.518644 -5.805378,1.37958 -8.693567,2.11323 -8.693078,2.431012 -17.278434,5.206036 -25.864338,7.988207 -10.341774,3.184845 -20.953793,6.45687 -31.815746,7.199516 -2.029375,0.138753 -4.06809,0.03361 -6.102136,0.05041 -3.634225,-0.697868 -6.14223,-0.662636 -9.1047502,-3.079729 -3.452418,-2.816799 -4.027413,-7.559082 -3.611597,-11.675557 0.16644,-1.647717 0.643557,-3.249078 0.965336,-4.87362 1.548552,-4.302685 1.720759,-5.519551 4.169482,-9.403621 4.9654782,-7.876048 12.7171872,-12.298441 21.0869582,-16.158963 1.061326,-0.174449 2.108689,-0.547892 3.183977,-0.523347 3.81649,0.08712 7.566403,4.053719 9.51533,6.975643 0.664567,0.996351 1.15108,2.10059 1.726617,3.150885 0.381604,1.186644 0.862997,2.345713 1.14481,3.559932 0.620027,2.671441 0.868249,6.336878 0.899126,9.012981 0.07514,6.51279 -0.712552,12.971343 -2.483599,19.248818 -0.809172,2.505829 -1.548072,5.035449 -2.427515,7.517492 -0.986552,2.784335 -2.092629,5.524984 -3.168483,8.276048 -4.116681,10.526752 -8.39959,20.99408 -12.925594,31.351419 0,0 -9.575439,4.26837 -9.575439,4.26837 z"
       inkscape:connector-curvature="0" />
    <path
       style="opacity:1;fill:#000000;fill-opacity:1;stroke:none;stroke-width:0.26499999;stroke-miterlimit:4;stroke-dasharray:none;stroke-opacity:1"
       id="path2445"
       d="m 38.180269,68.254174 c 3.3489,-0.354933 6.684459,-0.874657 10.029184,-1.289806 2.336115,-0.309595 4.676211,-0.584867 7.022351,-0.806085 1.197142,-0.129016 2.379925,0.128354 3.556093,0.314814 1.60012,0.303567 3.221164,0.400389 4.845357,0.453948 1.458571,0.02352 2.917179,0.03427 4.375819,0.01275 0.865579,-0.009 1.731235,-0.01119 2.59656,-0.03588 0.486947,-0.0095 0.974513,-0.0019 1.461579,0.0057 0.407993,-0.0011 0.210458,5.29e-4 0.592604,-0.0045 0,0 -9.109131,6.618197 -9.109131,6.618197 v 0 c -0.371202,-0.0051 -0.177853,-0.0034 -0.580051,-0.0045 -0.492093,0.0075 -0.984636,0.01519 -1.476627,0.008 -0.838157,-0.02201 -1.676582,-0.01876 -2.51493,-0.02723 -1.445437,-0.02379 -2.892166,-0.01251 -4.335833,-0.09785 -1.644817,-0.08217 -3.279661,-0.221239 -4.896697,-0.547163 -1.177478,-0.137811 -2.343864,-0.158854 -3.524874,-0.05367 -2.204715,0.09352 -4.401439,0.317008 -6.59347,0.564896 -3.474468,0.44984 -6.944,0.9656 -10.380413,1.651458 0,0 8.932479,-6.763178 8.932479,-6.763178 z"
       inkscape:connector-curvature="0" />
    <path
       style="opacity:1;fill:#000000;fill-opacity:1;stroke:none;stroke-width:0.24681856;stroke-miterlimit:4;stroke-dasharray:none;stroke-opacity:1"
       id="path2451"
       d="m 106.63463,32.509718 c 4.53562,11.090067 10.55236,21.432666 16.09903,31.980895 5.07955,9.351483 9.54098,19.04332 13.88477,28.790589 1.90288,4.041426 3.4788,8.237528 5.14935,12.388558 0.44386,0.61381 0.45527,1.47817 0.86271,2.1136 0.0337,0.0525 0.16759,-0.17404 0.11238,-0.14888 -2.97313,1.35475 -5.69376,3.56411 -8.88529,4.14636 -0.77932,0.14217 -0.0898,-1.66528 -0.16495,-2.49528 -0.10119,-1.11703 -0.2427,-2.2296 -0.36405,-3.3444 -1.17208,-7.744865 -1.33879,-15.590351 -1.32777,-23.415478 0.29721,-6.087587 0.74329,-12.166471 1.19522,-18.243351 0.89972,-4.685701 2.10322,-9.403454 3.89523,-13.805368 1.71466,-3.372296 3.96517,-6.427939 6.54458,-9.11215 5.9457,-4.16115 12.3779,-8.101708 19.44177,-9.667616 3.67435,-0.162052 5.27995,1.900415 7.04571,4.967919 1.14892,2.23591 1.73172,4.695603 1.73758,7.228141 0.0194,1.118474 -0.22014,2.132839 -0.65126,3.139128 -0.0703,0.159065 -0.1429,0.31697 -0.21264,0.476313 0,0 -9.38915,4.345481 -9.38915,4.345481 v 0 c 0.10981,-0.131338 0.20991,-0.270402 0.29852,-0.418862 0.52355,-0.876866 0.96832,-1.710202 0.98698,-2.782487 0.23,-2.361851 -0.26782,-4.65559 -1.29545,-6.771184 -1.5707,-2.713986 -3.0952,-4.408189 -6.32232,-3.923182 -1.81965,0.470885 -3.57617,1.060604 -5.32326,1.782751 -0.71621,0.296049 -2.76077,1.402475 -2.12862,0.940269 2.8704,-2.098738 9.54956,-5.859022 4.97863,-3.2636 -2.78451,2.441982 -5.04289,5.534517 -6.88733,8.806339 -1.92381,4.265588 -3.20779,8.90117 -4.0595,13.528605 -0.7784,6.086875 -1.2362,12.194795 -1.53539,18.328873 -0.31725,7.780438 -0.10542,15.57382 1.28385,23.247219 0.19486,1.07684 0.37633,2.15649 0.58458,3.23055 0.15192,0.78353 1.0263,1.76988 0.49583,2.34159 -8.72963,9.40842 -7.76468,9.11846 -9.49145,3.80774 -1.44882,-4.25416 -3.16199,-8.40321 -4.6609,-12.638393 C 124.8073,88.044241 120.50491,78.263586 115.55829,68.838582 110.03707,58.252983 104.24347,47.82708 98.023215,37.678712 c 0,0 8.611425,-5.168994 8.611415,-5.168994 z"
       inkscape:connector-curvature="0" />
  </g>
</svg>
